<?xml version="1.0" encoding="utf-8"?>
<!-- Generator: Adobe Illustrator 17.0.0, SVG Export Plug-In . SVG Version: 6.00 Build 0)  -->
<!DOCTYPE svg PUBLIC "-//W3C//DTD SVG 1.1//EN" "http://www.w3.org/Graphics/SVG/1.1/DTD/svg11.dtd">
<svg version="1.1" id="Layer_2" xmlns="http://www.w3.org/2000/svg" xmlns:xlink="http://www.w3.org/1999/xlink" x="0px" y="0px"
	 width="728px" height="90px" viewBox="0 0 728 90" enable-background="new 0 0 728 90" xml:space="preserve">
<g>
	<g>
		<rect x="35.054" y="24.726" fill="#05173C" width="189.454" height="2.045"/>
		<rect x="35.053" y="48.147" fill="#05173C" width="189.456" height="2.046"/>
	</g>
	<g>
		<g>
			<path fill="#FFFFFF" d="M45.404,31.153h3.173v9.821h6.25v2.698h-9.423V31.153z"/>
			<path fill="#FFFFFF" d="M62.598,43.862c-4.141,0-7.104-2.432-7.104-6.402c0-3.971,2.964-6.402,7.104-6.402
				c4.142,0,7.105,2.432,7.105,6.402S66.739,43.862,62.598,43.862z M62.598,41.126c2.584,0,3.856-1.539,3.856-3.667
				s-1.272-3.667-3.856-3.667c-2.583,0-3.855,1.539-3.855,3.667C58.742,39.587,60.015,41.126,62.598,41.126z"/>
			<path fill="#FFFFFF" d="M72.384,31.153h2.755l7.332,7.618h0.038v-7.618h3.173v12.519h-2.621l-7.467-7.808h-0.037v7.808h-3.173
				C72.384,43.672,72.384,31.153,72.384,31.153z"/>
			<path fill="#FFFFFF" d="M89.028,31.153h5.262c1.292,0,2.185,0.095,3.002,0.285c2.717,0.646,4.882,2.47,4.882,5.775
				c0,3.381-2.279,5.129-4.388,5.87c-1.463,0.513-3.116,0.589-4.578,0.589h-4.18C89.028,43.672,89.028,31.153,89.028,31.153z
				 M93.398,40.974c1.14,0,2.033-0.076,2.773-0.285c1.539-0.437,2.755-1.615,2.755-3.477c0-1.843-1.159-2.792-2.451-3.154
				c-0.722-0.209-1.462-0.209-2.678-0.209h-1.596v7.124L93.398,40.974L93.398,40.974z"/>
			<path fill="#FFFFFF" d="M111.294,43.862c-4.141,0-7.104-2.432-7.104-6.402c0-3.971,2.964-6.402,7.104-6.402
				c4.142,0,7.105,2.432,7.105,6.402C118.4,41.43,115.436,43.862,111.294,43.862z M111.294,41.126c2.584,0,3.856-1.539,3.856-3.667
				s-1.272-3.667-3.856-3.667c-2.583,0-3.856,1.539-3.856,3.667C107.438,39.587,108.711,41.126,111.294,41.126z"/>
			<path fill="#FFFFFF" d="M121.081,31.153h2.755l7.332,7.618h0.038v-7.618h3.173v12.519h-2.621l-7.467-7.808h-0.037v7.808h-3.173
				C121.081,43.672,121.081,31.153,121.081,31.153z"/>
			<path fill="#FFFFFF" d="M141.885,37.346h6.061v2.451h-6.061V37.346z"/>
			<path fill="#FFFFFF" d="M155.451,31.153h4.901c1.063,0,1.805,0.095,2.47,0.285c1.956,0.551,3.191,1.862,3.191,3.933
				c0,2.109-1.273,3.59-3.591,4.142c-0.627,0.152-1.349,0.208-2.337,0.208h-1.462v3.952h-3.173v-12.52H155.451z M159.973,37.099
				c0.798,0,1.216-0.076,1.538-0.171c0.894-0.266,1.254-0.817,1.254-1.52s-0.36-1.197-1.196-1.444
				c-0.323-0.095-0.665-0.114-1.292-0.114h-1.652v3.249H159.973z"/>
			<path fill="#FFFFFF" d="M166.965,43.672l5.699-12.576h2.83l6.175,12.576h-3.553l-1.216-2.641h-5.414l-1.083,2.641H166.965z
				 M174.069,34.876h-0.038l-1.443,3.496h3.077L174.069,34.876z"/>
			<path fill="#FFFFFF" d="M190.6,38.657c1.045,0.589,1.406,2.679,2.944,2.679c0.343,0,0.665-0.076,0.97-0.19l0.569,2.394
				c-0.646,0.247-1.425,0.323-2.014,0.323c-4.046,0-4.445-4.635-5.794-4.635h-0.684v4.445h-3.173v-12.52h5.167
				c3.42,0,5.301,1.311,5.301,3.951c0,1.862-1.179,3.135-3.287,3.515v0.038H190.6z M188.263,36.681c1.691,0,2.375-0.532,2.375-1.463
				c0-1.007-0.684-1.368-2.146-1.368h-1.899v2.831H188.263z"/>
			<path fill="#FFFFFF" d="M196.984,31.153h3.173v12.519h-3.173V31.153z"/>
			<path fill="#FFFFFF" d="M203.881,40.12c1.178,0.722,2.868,1.083,4.293,1.083c1.805,0,2.736-0.437,2.736-1.254
				c0-1.861-7.809-0.019-7.809-4.863c0-2.66,2.337-4.027,5.301-4.027c1.899,0,4.16,0.475,5.547,1.292l-1.063,2.336
				c-1.14-0.589-3.002-0.969-4.37-0.969c-1.558,0-2.165,0.437-2.165,1.102c0,2.242,7.808,0.114,7.808,5.034
				c0,2.583-2.47,4.008-5.965,4.008c-2.014,0-4.104-0.456-5.548-1.406L203.881,40.12z"/>
		</g>
	</g>
</g>
</svg>
