<?xml version="1.0" encoding="utf-8"?>
<!-- Generator: Adobe Illustrator 17.0.0, SVG Export Plug-In . SVG Version: 6.00 Build 0)  -->
<!DOCTYPE svg PUBLIC "-//W3C//DTD SVG 1.1//EN" "http://www.w3.org/Graphics/SVG/1.1/DTD/svg11.dtd">
<svg version="1.1" id="Layer_2" xmlns="http://www.w3.org/2000/svg" xmlns:xlink="http://www.w3.org/1999/xlink" x="0px" y="0px"
	 width="728px" height="90px" viewBox="0 0 728 90" enable-background="new 0 0 728 90" xml:space="preserve">
<g>
	<path fill="#FFFFFF" d="M300.073,47.8c1.24,0.761,3.021,1.141,4.521,1.141c1.9,0,2.88-0.46,2.88-1.32
		c0-1.96-8.222-0.02-8.222-5.121c0-2.801,2.46-4.241,5.581-4.241c2,0,4.381,0.5,5.841,1.36l-1.12,2.461
		c-1.2-0.62-3.161-1.021-4.601-1.021c-1.64,0-2.28,0.46-2.28,1.16c0,2.36,8.222,0.12,8.222,5.302c0,2.721-2.601,4.221-6.281,4.221
		c-2.121,0-4.321-0.48-5.841-1.48L300.073,47.8z"/>
	<path fill="#FFFFFF" d="M312.073,51.542l6.001-13.243h2.981l6.501,13.243h-3.741l-1.28-2.78h-5.702l-1.14,2.78H312.073z
		 M319.554,42.28h-0.04l-1.52,3.681h3.241L319.554,42.28z"/>
	<path fill="#FFFFFF" d="M329.393,38.359h3.341v10.342h6.582v2.841h-9.922V38.359z"/>
	<path fill="#FFFFFF" d="M341.113,38.359h10.242V41.2h-6.901v2.28h6.281v2.841h-6.281v2.38h7.021v2.841h-10.362V38.359z"/>
	<path fill="#FFFFFF" d="M359.152,38.359h10.242V41.2h-6.901v2.28h6.281v2.841h-6.281v2.38h7.021v2.841h-10.362V38.359z"/>
	<path fill="#FFFFFF" d="M372.432,38.359h2.901l7.722,8.021h0.04v-8.021h3.34v13.183h-2.76l-7.862-8.222h-0.04v8.222h-3.341V38.359z
		"/>
	<path fill="#FFFFFF" d="M389.951,38.359h5.541c1.36,0,2.301,0.1,3.161,0.3c2.86,0.681,5.141,2.601,5.141,6.081
		c0,3.562-2.4,5.401-4.621,6.182c-1.54,0.54-3.28,0.62-4.82,0.62h-4.401V38.359z M394.553,48.701c1.2,0,2.14-0.08,2.92-0.3
		c1.62-0.46,2.9-1.7,2.9-3.661c0-1.94-1.22-2.94-2.58-3.32c-0.76-0.22-1.54-0.22-2.82-0.22h-1.681v7.501H394.553z"/>
	<path fill="#FFFFFF" d="M407.011,47.8c1.24,0.761,3.021,1.141,4.521,1.141c1.9,0,2.881-0.46,2.881-1.32
		c0-1.96-8.223-0.02-8.223-5.121c0-2.801,2.461-4.241,5.582-4.241c2,0,4.381,0.5,5.841,1.36l-1.12,2.461
		c-1.2-0.62-3.161-1.021-4.602-1.021c-1.64,0-2.28,0.46-2.28,1.16c0,2.36,8.222,0.12,8.222,5.302c0,2.721-2.601,4.221-6.281,4.221
		c-2.12,0-4.32-0.48-5.841-1.48L407.011,47.8z"/>
	<path fill="#FFFFFF" d="M423.171,51.542l6.001-13.243h2.98l6.502,13.243h-3.741l-1.28-2.78h-5.701l-1.14,2.78H423.171z
		 M430.652,42.28h-0.04l-1.521,3.681h3.241L430.652,42.28z"/>
	<path fill="#FFFFFF" d="M440.491,38.359h5.161c1.12,0,1.9,0.1,2.601,0.3c2.06,0.58,3.36,1.961,3.36,4.141
		c0,2.221-1.341,3.781-3.781,4.361c-0.66,0.16-1.42,0.22-2.46,0.22h-1.54v4.161h-3.341V38.359z M445.252,44.62
		c0.84,0,1.28-0.08,1.62-0.18c0.94-0.28,1.32-0.86,1.32-1.601s-0.38-1.26-1.26-1.521c-0.341-0.1-0.7-0.119-1.36-0.119h-1.74v3.42
		H445.252z"/>
	<path fill="#FFFFFF" d="M461.853,46.26c1.1,0.62,1.48,2.82,3.101,2.82c0.36,0,0.7-0.08,1.021-0.199l0.6,2.521
		c-0.68,0.26-1.5,0.34-2.12,0.34c-4.261,0-4.682-4.881-6.102-4.881h-0.72v4.681h-3.341V38.359h5.44c3.602,0,5.582,1.38,5.582,4.161
		c0,1.96-1.241,3.3-3.461,3.7V46.26z M459.392,44.18c1.78,0,2.501-0.561,2.501-1.541c0-1.06-0.721-1.439-2.261-1.439h-2v2.98
		H459.392z"/>
	<path fill="#FFFFFF" d="M468.571,38.359h3.341v13.183h-3.341V38.359z"/>
	<path fill="#FFFFFF" d="M475.431,38.359h3.341v10.342h6.581v2.841h-9.922V38.359z"/>
	<path fill="#FFFFFF" d="M496.11,38.359h3.301l-4.741,7.342h3.441v-3.361h3.021v3.361h3.44v2.58h-3.44v3.461h-3.021v-3.461h-6.042
		l-1.24-1.74L496.11,38.359z"/>
</g>
<g>
	<g>
		<path fill="#FFFFFF" d="M49.144,42.965c1.005,0.758,2.406,1.213,4.112,1.213c2.122,0,3.885-0.776,3.885-2.501
			c0-2.672-5.097-1.497-7.258-3.279c-0.606-0.492-0.985-1.174-0.985-2.236c0-2.255,1.952-3.505,4.794-3.505
			c1.896,0,3.638,0.568,4.567,1.193l-0.588,1.081c-0.814-0.493-2.273-1.024-3.884-1.024c-2.445,0-3.411,1.042-3.411,2.179
			c0,3.657,8.242,0.664,8.242,5.571c0,2.558-2.501,3.771-5.362,3.771c-2.122,0-3.789-0.588-4.813-1.383L49.144,42.965z"/>
		<path fill="#FFFFFF" d="M66.406,32.695h1.005l6.385,12.544h-1.572l-1.99-3.979h-6.537l-1.932,3.979H60.21L66.406,32.695z
			 M69.609,40.028l-2.69-5.343H66.88l-2.596,5.343H69.609z"/>
		<path fill="#FFFFFF" d="M74.365,32.752l5.343,10.554h0.038l5.078-10.554h1.554l-6.196,12.544h-0.948l-6.423-12.544H74.365z"/>
		<path fill="#FFFFFF" d="M88.444,32.752h8.602v1.251h-7.201v4.244h6.5v1.232h-6.5v4.51h7.315v1.25h-8.716V32.752z"/>
		<path fill="#FFFFFF" d="M105.094,41.48c0.431-8.964,10.351-7.055,13.154-9.087c0.462-0.339,0.74-0.771,0.74-1.387
			c0-1.202-1.417-1.91-4.252-1.91c-3.112,0-5.884,0.832-8.194,2.033l-1.88-3.727c2.803-1.571,6.161-2.618,10.104-2.618
			c4.775,0,9.057,1.756,9.057,6.284c0,8.78-13.678,4.343-13.678,9.981v0.216h13.955v3.974h-19.192L105.094,41.48z"/>
		<path fill="#FFFFFF" d="M126.383,35.196c0-6.223,4.99-10.412,10.843-10.412c5.854,0,10.844,4.189,10.844,10.412
			c0,6.377-5.083,10.351-10.844,10.351C131.467,45.547,126.383,41.573,126.383,35.196z M143.234,35.196
			c0-3.543-2.588-6.099-6.007-6.099c-3.419,0-6.007,2.557-6.007,6.099c0,3.512,2.588,6.038,6.007,6.038
			C140.677,41.234,143.234,38.708,143.234,35.196z"/>
		<path fill="#FFFFFF" d="M149.952,27.941c0-3.204,2.588-5.36,5.576-5.36s5.576,2.156,5.576,5.36c0,3.265-2.649,5.329-5.576,5.329
			C152.571,33.271,149.952,31.206,149.952,27.941z M168.405,22.951h3.543l-16.912,20.393h-3.543L168.405,22.951z M158.146,27.941
			c0-1.571-1.14-2.68-2.618-2.68c-1.509,0-2.649,1.109-2.649,2.68c0,1.509,1.14,2.618,2.649,2.618S158.146,29.45,158.146,27.941z
			 M162.645,38.169c0-3.204,2.588-5.361,5.575-5.361s5.576,2.156,5.576,5.361c0,3.265-2.649,5.329-5.576,5.329
			C165.263,43.498,162.645,41.434,162.645,38.169z M170.838,38.169c0-1.571-1.14-2.68-2.618-2.68c-1.509,0-2.649,1.109-2.649,2.68
			c0,1.509,1.14,2.618,2.649,2.618C169.729,40.787,170.838,39.678,170.838,38.169z"/>
		<path fill="#FFFFFF" d="M180.968,39.062c0-3.789,2.786-6.404,6.916-6.404c4.131,0,6.916,2.615,6.916,6.404
			c0,3.903-2.842,6.367-6.916,6.367C183.791,45.428,180.968,42.965,180.968,39.062z M193.322,39.062
			c0-2.975-2.046-5.154-5.438-5.154c-3.411,0-5.438,2.179-5.438,5.154c0,2.974,2.028,5.116,5.438,5.116
			C191.276,44.177,193.322,42.036,193.322,39.062z"/>
		<path fill="#FFFFFF" d="M197.945,32.752h1.117l9.891,10.042h0.038V32.752h1.402v12.487h-0.966l-10.042-10.194h-0.038v10.194
			h-1.402V32.752z"/>
	</g>
	<g>
		<g id="XMLID_95_">
			<path id="XMLID_99_" fill="#06183D" d="M148.495,61.452c0.704,0,1.073-0.066,1.358-0.15c0.787-0.235,1.106-0.721,1.106-1.341
				c0-0.62-0.319-1.056-1.056-1.274c-0.285-0.084-0.587-0.101-1.14-0.101h-1.458v2.866H148.495z M144.506,56.206h4.324
				c0.939,0,1.592,0.084,2.178,0.251c1.727,0.486,2.816,1.642,2.816,3.469c0,1.861-1.123,3.167-3.168,3.654
				c-0.553,0.134-1.189,0.184-2.061,0.184h-1.291v3.486h-2.799V56.206z"/>
			<path id="XMLID_96_" fill="#06183D" d="M163.363,61.083c1.491,0,2.095-0.469,2.095-1.29c0-0.888-0.603-1.207-1.893-1.207h-1.676
				v2.497H163.363z M165.424,62.827c0.922,0.52,1.24,2.363,2.598,2.363c0.301,0,0.586-0.067,0.854-0.168l0.503,2.112
				c-0.57,0.218-1.257,0.285-1.776,0.285c-3.57,0-3.922-4.089-5.112-4.089h-0.603v3.922h-2.799V56.207h4.558
				c3.017,0,4.676,1.156,4.676,3.486c0,1.642-1.039,2.765-2.899,3.1V62.827z"/>
		</g>
		<polygon id="XMLID_94_" fill="#06183D" points="174.074,56.206 174.074,67.251 182.756,67.251 182.756,64.871 176.874,64.871 
			176.874,62.876 182.136,62.876 182.136,60.497 176.874,60.497 176.874,58.586 182.656,58.586 182.656,56.206 		"/>
		<polygon id="XMLID_93_" fill="#06183D" points="199.3,56.206 195.043,61.268 195.01,61.268 190.753,56.206 188.222,56.206 
			188.222,67.251 191.02,67.251 191.02,60.597 191.055,60.597 194.792,65.056 195.228,65.056 198.964,60.597 198.999,60.597 
			198.999,67.251 201.797,67.251 201.797,56.206 		"/>
		<rect id="XMLID_92_" x="207.767" y="56.207" fill="#06183D" width="2.799" height="11.044"/>
		<polygon id="XMLID_91_" fill="#06183D" points="216.533,56.206 216.533,67.251 225.215,67.251 225.215,64.871 219.333,64.871 
			219.333,62.876 224.595,62.876 224.595,60.497 219.333,60.497 219.333,58.586 225.114,58.586 225.114,56.206 		"/>
		<path id="XMLID_88_" fill="#06183D" d="M234.955,61.083c1.491,0,2.095-0.469,2.095-1.29c0-0.888-0.603-1.207-1.893-1.207h-1.676
			v2.497H234.955z M237.016,62.827c0.922,0.52,1.24,2.363,2.598,2.363c0.301,0,0.586-0.067,0.854-0.168l0.503,2.112
			c-0.57,0.218-1.257,0.285-1.776,0.285c-3.57,0-3.922-4.089-5.112-4.089h-0.603v3.922h-2.799V56.207h4.558
			c3.017,0,4.676,1.156,4.676,3.486c0,1.642-1.039,2.765-2.899,3.1V62.827z"/>
	</g>
	<g>
		<path id="XMLID_87_" fill="#06183D" d="M18.77,64.771c0.932,0.566,2.114,0.982,3.578,0.982c1.831,0,3.013-0.583,3.013-1.748
			c0-1.964-4.095-1.032-6.059-2.463c-0.616-0.449-0.999-1.115-0.999-2.164c0-2.164,1.798-3.229,4.278-3.229
			c1.682,0,3.279,0.483,4.311,1.082l-0.682,1.398c-0.899-0.449-2.197-0.865-3.512-0.865c-1.915,0-2.547,0.749-2.547,1.515
			c0,2.714,7.058,0.266,7.058,4.644c0,2.413-2.347,3.445-4.877,3.445c-1.814,0-3.296-0.483-4.361-1.182L18.77,64.771z"/>
		<polygon id="XMLID_86_" fill="#06183D" points="30.554,56.232 30.554,57.813 34.632,57.813 34.632,67.201 36.397,67.201 
			36.397,57.813 40.474,57.813 40.474,56.232 		"/>
		<path id="XMLID_83_" fill="#06183D" d="M48.314,58.662h0.033l1.931,3.845h-3.795L48.314,58.662z M47.731,56.182l-5.427,11.019
			h1.948l1.481-3.112h5.343l1.565,3.112h1.947l-5.626-11.019H47.731z"/>
		<polygon id="XMLID_82_" fill="#06183D" points="68.503,56.232 68.503,64.172 68.47,64.172 60.563,56.232 59.182,56.232 
			59.182,67.201 60.946,67.201 60.946,59.145 60.98,59.145 69.002,67.201 70.268,67.201 70.268,56.232 		"/>
		<path id="XMLID_79_" fill="#06183D" d="M79.737,65.62c1.082,0,1.981-0.1,2.747-0.316c1.831-0.533,2.946-1.731,2.946-3.762
			c0-2.048-1.182-3.063-2.846-3.496c-0.699-0.183-1.482-0.233-2.431-0.233h-2.13v7.807H79.737z M76.259,56.232h4.111
			c1.032,0,1.898,0.083,2.68,0.266c2.547,0.616,4.228,2.264,4.228,5.044c0,2.796-1.731,4.577-4.377,5.309
			c-0.899,0.25-1.898,0.35-3.13,0.35h-3.512V56.232z"/>
		<path id="XMLID_76_" fill="#06183D" d="M97.297,58.662h0.034l1.931,3.845h-3.795L97.297,58.662z M96.714,56.182l-5.426,11.019
			h1.947l1.481-3.112h5.343l1.565,3.112h1.947l-5.626-11.019H96.714z"/>
		<path id="XMLID_73_" fill="#06183D" d="M111.261,61.376c0.716,0,1.282-0.033,1.731-0.166c0.849-0.25,1.399-0.782,1.399-1.681
			c0-0.833-0.533-1.365-1.249-1.565c-0.466-0.133-0.965-0.15-1.664-0.15h-1.548v3.562H111.261z M108.165,56.232h3.279
			c0.832,0,1.581,0.05,2.214,0.216c1.431,0.383,2.58,1.315,2.58,3.046c0,1.881-1.348,2.83-3.146,3.13v0.033
			c0.716,0.399,1.165,1.864,2.048,2.58c0.333,0.266,0.699,0.433,1.165,0.433c0.2,0,0.516-0.033,0.766-0.1l0.366,1.498
			c-0.316,0.133-0.865,0.216-1.381,0.216c-0.832,0-1.481-0.3-2.014-0.732c-1.515-1.232-2.098-3.595-3.213-3.595h-0.899v4.244h-1.764
			V56.232z"/>
		<path id="XMLID_9_" fill="#06183D" d="M125.475,65.62c1.082,0,1.981-0.1,2.746-0.316c1.831-0.533,2.947-1.731,2.947-3.762
			c0-2.048-1.182-3.063-2.846-3.496c-0.699-0.183-1.482-0.233-2.431-0.233h-2.13v7.807H125.475z M121.996,56.232h4.111
			c1.032,0,1.897,0.083,2.68,0.266c2.547,0.616,4.228,2.264,4.228,5.044c0,2.796-1.731,4.577-4.377,5.309
			c-0.899,0.25-1.898,0.35-3.13,0.35h-3.512V56.232z"/>
	</g>
</g>
</svg>
