<?xml version="1.0" encoding="utf-8"?>
<!-- Generator: Adobe Illustrator 17.0.0, SVG Export Plug-In . SVG Version: 6.00 Build 0)  -->
<!DOCTYPE svg PUBLIC "-//W3C//DTD SVG 1.1//EN" "http://www.w3.org/Graphics/SVG/1.1/DTD/svg11.dtd">
<svg version="1.1" id="Layer_2" xmlns="http://www.w3.org/2000/svg" xmlns:xlink="http://www.w3.org/1999/xlink" x="0px" y="0px"
	 width="728px" height="90px" viewBox="0 0 728 90" enable-background="new 0 0 728 90" xml:space="preserve">
<g>
	<g>
		<g id="XMLID_128_">
			<path id="XMLID_132_" fill="#F7F7F7" d="M144.502,60.978c0.537,0,0.818-0.051,1.035-0.114c0.6-0.179,0.843-0.549,0.843-1.022
				c0-0.473-0.243-0.805-0.805-0.971c-0.217-0.064-0.447-0.077-0.869-0.077h-1.112v2.185H144.502z M141.462,56.979h3.296
				c0.716,0,1.214,0.064,1.661,0.192c1.316,0.371,2.147,1.252,2.147,2.645c0,1.418-0.856,2.415-2.415,2.785
				c-0.422,0.102-0.907,0.141-1.571,0.141h-0.984v2.657h-2.133V56.979z"/>
			<path id="XMLID_129_" fill="#F7F7F7" d="M155.837,60.697c1.137,0,1.597-0.358,1.597-0.983c0-0.677-0.46-0.92-1.443-0.92h-1.278
				v1.903H155.837z M157.408,62.026c0.703,0.396,0.946,1.801,1.981,1.801c0.229,0,0.447-0.051,0.651-0.128l0.383,1.61
				c-0.434,0.166-0.958,0.217-1.354,0.217c-2.722,0-2.99-3.117-3.897-3.117h-0.46v2.99h-2.133v-8.419h3.475
				c2.3,0,3.565,0.881,3.565,2.657c0,1.252-0.792,2.108-2.21,2.363V62.026z"/>
		</g>
		<polygon id="XMLID_127_" fill="#F7F7F7" points="164.002,56.979 164.002,65.399 170.621,65.399 170.621,63.585 166.136,63.585 
			166.136,62.064 170.148,62.064 170.148,60.25 166.136,60.25 166.136,58.793 170.544,58.793 170.544,56.979 		"/>
		<polygon id="XMLID_126_" fill="#F7F7F7" points="183.233,56.979 179.988,60.838 179.962,60.838 176.717,56.979 174.787,56.979 
			174.787,65.399 176.921,65.399 176.921,60.326 176.947,60.326 179.796,63.725 180.128,63.725 182.977,60.326 183.003,60.326 
			183.003,65.399 185.136,65.399 185.136,56.979 		"/>
		<rect id="XMLID_125_" x="189.687" y="56.979" fill="#F7F7F7" width="2.133" height="8.419"/>
		<polygon id="XMLID_124_" fill="#F7F7F7" points="196.37,56.979 196.37,65.399 202.988,65.399 202.988,63.585 198.504,63.585 
			198.504,62.064 202.516,62.064 202.516,60.25 198.504,60.25 198.504,58.793 202.912,58.793 202.912,56.979 		"/>
		<path id="XMLID_121_" fill="#F7F7F7" d="M210.414,60.697c1.137,0,1.597-0.358,1.597-0.983c0-0.677-0.46-0.92-1.443-0.92h-1.278
			v1.903H210.414z M211.985,62.026c0.703,0.396,0.946,1.801,1.981,1.801c0.229,0,0.447-0.051,0.651-0.128l0.383,1.61
			c-0.434,0.166-0.958,0.217-1.354,0.217c-2.722,0-2.99-3.117-3.897-3.117h-0.46v2.99h-2.133v-8.419h3.475
			c2.3,0,3.565,0.881,3.565,2.657c0,1.252-0.792,2.108-2.21,2.363V62.026z"/>
	</g>
	<g>
		<path id="XMLID_120_" fill="#F7F7F7" d="M45.609,63.508c0.711,0.431,1.611,0.749,2.728,0.749c1.396,0,2.297-0.444,2.297-1.332
			c0-1.497-3.122-0.787-4.619-1.878c-0.469-0.343-0.761-0.85-0.761-1.65c0-1.649,1.37-2.462,3.261-2.462
			c1.282,0,2.5,0.368,3.287,0.825l-0.52,1.066c-0.685-0.343-1.675-0.66-2.677-0.66c-1.46,0-1.942,0.571-1.942,1.155
			c0,2.069,5.38,0.203,5.38,3.54c0,1.84-1.789,2.626-3.718,2.626c-1.383,0-2.512-0.368-3.324-0.901L45.609,63.508z"/>
		<polygon id="XMLID_119_" fill="#F7F7F7" points="54.592,56.999 54.592,58.204 57.701,58.204 57.701,65.361 59.046,65.361 
			59.046,58.204 62.155,58.204 62.155,56.999 		"/>
		<path id="XMLID_116_" fill="#F7F7F7" d="M68.131,58.851h0.025l1.472,2.931h-2.893L68.131,58.851z M67.687,56.961l-4.137,8.4h1.485
			l1.129-2.373h4.073l1.193,2.373h1.485l-4.289-8.4H67.687z"/>
		<polygon id="XMLID_115_" fill="#F7F7F7" points="83.522,56.999 83.522,63.052 83.497,63.052 77.469,56.999 76.417,56.999 
			76.417,65.361 77.761,65.361 77.761,59.219 77.787,59.219 83.903,65.361 84.867,65.361 84.867,56.999 		"/>
		<path id="XMLID_112_" fill="#F7F7F7" d="M92.086,64.155c0.825,0,1.51-0.076,2.094-0.241c1.396-0.406,2.246-1.32,2.246-2.868
			c0-1.561-0.901-2.335-2.17-2.665c-0.533-0.14-1.13-0.178-1.853-0.178h-1.624v5.951H92.086z M89.435,56.999h3.134
			c0.787,0,1.447,0.063,2.043,0.203c1.941,0.469,3.223,1.726,3.223,3.845c0,2.132-1.32,3.489-3.337,4.048
			c-0.685,0.19-1.447,0.266-2.386,0.266h-2.677V56.999z"/>
		<path id="XMLID_109_" fill="#F7F7F7" d="M105.472,58.851h0.026l1.472,2.931h-2.893L105.472,58.851z M105.028,56.961l-4.136,8.4
			h1.485l1.129-2.373h4.073l1.193,2.373h1.485l-4.289-8.4H105.028z"/>
		<path id="XMLID_106_" fill="#F7F7F7" d="M116.118,60.92c0.546,0,0.977-0.025,1.32-0.127c0.647-0.19,1.066-0.596,1.066-1.282
			c0-0.635-0.406-1.041-0.952-1.193c-0.355-0.102-0.736-0.114-1.269-0.114h-1.18v2.716H116.118z M113.758,56.999h2.5
			c0.634,0,1.205,0.038,1.688,0.165c1.091,0.292,1.967,1.002,1.967,2.322c0,1.434-1.028,2.157-2.399,2.386v0.025
			c0.546,0.305,0.888,1.421,1.561,1.967c0.254,0.203,0.533,0.33,0.888,0.33c0.152,0,0.393-0.025,0.584-0.076l0.279,1.142
			c-0.241,0.102-0.66,0.165-1.053,0.165c-0.634,0-1.129-0.228-1.535-0.558c-1.155-0.939-1.599-2.741-2.449-2.741h-0.685v3.236
			h-1.345V56.999z"/>
		<path id="XMLID_103_" fill="#F7F7F7" d="M126.954,64.155c0.825,0,1.51-0.076,2.094-0.241c1.396-0.406,2.246-1.32,2.246-2.868
			c0-1.561-0.901-2.335-2.17-2.665c-0.533-0.14-1.13-0.178-1.853-0.178h-1.624v5.951H126.954z M124.302,56.999h3.134
			c0.787,0,1.446,0.063,2.043,0.203c1.941,0.469,3.223,1.726,3.223,3.845c0,2.132-1.32,3.489-3.337,4.048
			c-0.685,0.19-1.447,0.266-2.386,0.266h-2.677V56.999z"/>
	</g>
</g>
</svg>
